<mxfile host="app.diagrams.net" modified="2023-02-20T07:23:20.025Z" agent="5.0 (Windows NT 10.0; Win64; x64) AppleWebKit/537.36 (KHTML, like Gecko) Chrome/109.0.0.0 Safari/537.36" etag="GvDxgMlKHG8-ngBQMVc4" version="20.8.20" type="github">
  <diagram name="第 1 页" id="UoYrIwJ-5rhTd3CL1av9">
    <mxGraphModel dx="1221" dy="644" grid="1" gridSize="10" guides="1" tooltips="1" connect="1" arrows="1" fold="1" page="1" pageScale="1" pageWidth="1100" pageHeight="850" math="0" shadow="0">
      <root>
        <mxCell id="0" />
        <mxCell id="1" parent="0" />
        <mxCell id="h5xGX1jMDuWpBRr6_GED-9" style="edgeStyle=orthogonalEdgeStyle;rounded=0;orthogonalLoop=1;jettySize=auto;html=1;" edge="1" parent="1" source="h5xGX1jMDuWpBRr6_GED-2" target="h5xGX1jMDuWpBRr6_GED-5">
          <mxGeometry relative="1" as="geometry" />
        </mxCell>
        <mxCell id="h5xGX1jMDuWpBRr6_GED-2" value="校验" style="shape=parallelogram;perimeter=parallelogramPerimeter;whiteSpace=wrap;html=1;fixedSize=1;" vertex="1" parent="1">
          <mxGeometry x="130" y="20" width="120" height="60" as="geometry" />
        </mxCell>
        <mxCell id="h5xGX1jMDuWpBRr6_GED-10" style="edgeStyle=orthogonalEdgeStyle;rounded=0;orthogonalLoop=1;jettySize=auto;html=1;" edge="1" parent="1" source="h5xGX1jMDuWpBRr6_GED-5" target="h5xGX1jMDuWpBRr6_GED-8">
          <mxGeometry relative="1" as="geometry" />
        </mxCell>
        <mxCell id="h5xGX1jMDuWpBRr6_GED-11" style="edgeStyle=orthogonalEdgeStyle;rounded=0;orthogonalLoop=1;jettySize=auto;html=1;entryX=0.5;entryY=0;entryDx=0;entryDy=0;" edge="1" parent="1" source="h5xGX1jMDuWpBRr6_GED-5" target="h5xGX1jMDuWpBRr6_GED-7">
          <mxGeometry relative="1" as="geometry" />
        </mxCell>
        <mxCell id="h5xGX1jMDuWpBRr6_GED-12" style="edgeStyle=orthogonalEdgeStyle;rounded=0;orthogonalLoop=1;jettySize=auto;html=1;" edge="1" parent="1" source="h5xGX1jMDuWpBRr6_GED-5">
          <mxGeometry relative="1" as="geometry">
            <mxPoint x="509" y="160" as="targetPoint" />
          </mxGeometry>
        </mxCell>
        <mxCell id="h5xGX1jMDuWpBRr6_GED-5" value="异常结果表" style="rounded=0;whiteSpace=wrap;html=1;" vertex="1" parent="1">
          <mxGeometry x="130" y="130" width="120" height="60" as="geometry" />
        </mxCell>
        <mxCell id="h5xGX1jMDuWpBRr6_GED-7" value="异常数据下载" style="rounded=0;whiteSpace=wrap;html=1;" vertex="1" parent="1">
          <mxGeometry x="200" y="279" width="120" height="60" as="geometry" />
        </mxCell>
        <mxCell id="h5xGX1jMDuWpBRr6_GED-8" value="BIEE报表" style="rounded=0;whiteSpace=wrap;html=1;" vertex="1" parent="1">
          <mxGeometry x="50" y="279" width="120" height="60" as="geometry" />
        </mxCell>
        <mxCell id="h5xGX1jMDuWpBRr6_GED-13" value="每日同步校验修改情况" style="text;html=1;strokeColor=none;fillColor=none;align=center;verticalAlign=middle;whiteSpace=wrap;rounded=0;" vertex="1" parent="1">
          <mxGeometry x="330" y="130" width="190" height="30" as="geometry" />
        </mxCell>
        <mxCell id="h5xGX1jMDuWpBRr6_GED-21" value="" style="shape=flexArrow;endArrow=classic;startArrow=classic;html=1;rounded=0;entryX=-0.002;entryY=0.154;entryDx=0;entryDy=0;entryPerimeter=0;" edge="1" parent="1" target="h5xGX1jMDuWpBRr6_GED-51">
          <mxGeometry width="100" height="100" relative="1" as="geometry">
            <mxPoint x="630" y="159.5" as="sourcePoint" />
            <mxPoint x="800" y="160" as="targetPoint" />
          </mxGeometry>
        </mxCell>
        <mxCell id="h5xGX1jMDuWpBRr6_GED-33" style="edgeStyle=orthogonalEdgeStyle;rounded=0;orthogonalLoop=1;jettySize=auto;html=1;exitX=0.5;exitY=1;exitDx=0;exitDy=0;" edge="1" parent="1" source="h5xGX1jMDuWpBRr6_GED-23" target="h5xGX1jMDuWpBRr6_GED-31">
          <mxGeometry relative="1" as="geometry" />
        </mxCell>
        <mxCell id="h5xGX1jMDuWpBRr6_GED-36" style="edgeStyle=orthogonalEdgeStyle;rounded=0;orthogonalLoop=1;jettySize=auto;html=1;exitX=0.5;exitY=1;exitDx=0;exitDy=0;" edge="1" parent="1" source="h5xGX1jMDuWpBRr6_GED-23" target="h5xGX1jMDuWpBRr6_GED-30">
          <mxGeometry relative="1" as="geometry" />
        </mxCell>
        <mxCell id="h5xGX1jMDuWpBRr6_GED-54" style="edgeStyle=orthogonalEdgeStyle;rounded=0;orthogonalLoop=1;jettySize=auto;html=1;exitX=0.5;exitY=1;exitDx=0;exitDy=0;entryX=0.5;entryY=0;entryDx=0;entryDy=0;" edge="1" parent="1" source="h5xGX1jMDuWpBRr6_GED-23" target="h5xGX1jMDuWpBRr6_GED-32">
          <mxGeometry relative="1" as="geometry" />
        </mxCell>
        <mxCell id="h5xGX1jMDuWpBRr6_GED-23" value="异常结果修改明细表" style="rounded=0;whiteSpace=wrap;html=1;" vertex="1" parent="1">
          <mxGeometry x="510" y="130" width="120" height="60" as="geometry" />
        </mxCell>
        <mxCell id="h5xGX1jMDuWpBRr6_GED-27" value="维度1&lt;br&gt;维度2&lt;br&gt;...&lt;br&gt;修改票数&lt;br&gt;总票数&lt;br&gt;修改占比&lt;br&gt;7天修改票数&lt;br&gt;7天修改占比&lt;br&gt;14天修改票数&lt;br&gt;14天修改占比" style="rounded=0;whiteSpace=wrap;html=1;align=left;" vertex="1" parent="1">
          <mxGeometry x="520" y="460" width="110" height="160" as="geometry" />
        </mxCell>
        <mxCell id="h5xGX1jMDuWpBRr6_GED-30" value="汇总1" style="rounded=0;whiteSpace=wrap;html=1;" vertex="1" parent="1">
          <mxGeometry x="365" y="281" width="120" height="60" as="geometry" />
        </mxCell>
        <mxCell id="h5xGX1jMDuWpBRr6_GED-31" value="汇总2" style="rounded=0;whiteSpace=wrap;html=1;" vertex="1" parent="1">
          <mxGeometry x="510" y="281" width="120" height="60" as="geometry" />
        </mxCell>
        <mxCell id="h5xGX1jMDuWpBRr6_GED-32" value="...." style="rounded=0;whiteSpace=wrap;html=1;" vertex="1" parent="1">
          <mxGeometry x="654" y="281" width="120" height="60" as="geometry" />
        </mxCell>
        <mxCell id="h5xGX1jMDuWpBRr6_GED-41" value="异常结果变更记录表" style="swimlane;fontStyle=0;childLayout=stackLayout;horizontal=1;startSize=26;fillColor=none;horizontalStack=0;resizeParent=1;resizeParentMax=0;resizeLast=0;collapsible=1;marginBottom=0;" vertex="1" parent="1">
          <mxGeometry x="820" y="130" width="140" height="260" as="geometry" />
        </mxCell>
        <mxCell id="h5xGX1jMDuWpBRr6_GED-51" value="区域公司" style="text;strokeColor=none;fillColor=none;align=left;verticalAlign=top;spacingLeft=4;spacingRight=4;overflow=hidden;rotatable=0;points=[[0,0.5],[1,0.5]];portConstraint=eastwest;" vertex="1" parent="h5xGX1jMDuWpBRr6_GED-41">
          <mxGeometry y="26" width="140" height="26" as="geometry" />
        </mxCell>
        <mxCell id="h5xGX1jMDuWpBRr6_GED-42" value="EOIM_ID" style="text;strokeColor=none;fillColor=none;align=left;verticalAlign=top;spacingLeft=4;spacingRight=4;overflow=hidden;rotatable=0;points=[[0,0.5],[1,0.5]];portConstraint=eastwest;" vertex="1" parent="h5xGX1jMDuWpBRr6_GED-41">
          <mxGeometry y="52" width="140" height="26" as="geometry" />
        </mxCell>
        <mxCell id="h5xGX1jMDuWpBRr6_GED-43" value="经营单位" style="text;strokeColor=none;fillColor=none;align=left;verticalAlign=top;spacingLeft=4;spacingRight=4;overflow=hidden;rotatable=0;points=[[0,0.5],[1,0.5]];portConstraint=eastwest;" vertex="1" parent="h5xGX1jMDuWpBRr6_GED-41">
          <mxGeometry y="78" width="140" height="26" as="geometry" />
        </mxCell>
        <mxCell id="h5xGX1jMDuWpBRr6_GED-44" value="业务板块" style="text;strokeColor=none;fillColor=none;align=left;verticalAlign=top;spacingLeft=4;spacingRight=4;overflow=hidden;rotatable=0;points=[[0,0.5],[1,0.5]];portConstraint=eastwest;" vertex="1" parent="h5xGX1jMDuWpBRr6_GED-41">
          <mxGeometry y="104" width="140" height="26" as="geometry" />
        </mxCell>
        <mxCell id="h5xGX1jMDuWpBRr6_GED-45" value="会计期" style="text;strokeColor=none;fillColor=none;align=left;verticalAlign=top;spacingLeft=4;spacingRight=4;overflow=hidden;rotatable=0;points=[[0,0.5],[1,0.5]];portConstraint=eastwest;" vertex="1" parent="h5xGX1jMDuWpBRr6_GED-41">
          <mxGeometry y="130" width="140" height="26" as="geometry" />
        </mxCell>
        <mxCell id="h5xGX1jMDuWpBRr6_GED-46" value="修改字段" style="text;strokeColor=none;fillColor=none;align=left;verticalAlign=top;spacingLeft=4;spacingRight=4;overflow=hidden;rotatable=0;points=[[0,0.5],[1,0.5]];portConstraint=eastwest;" vertex="1" parent="h5xGX1jMDuWpBRr6_GED-41">
          <mxGeometry y="156" width="140" height="26" as="geometry" />
        </mxCell>
        <mxCell id="h5xGX1jMDuWpBRr6_GED-47" value="值" style="text;strokeColor=none;fillColor=none;align=left;verticalAlign=top;spacingLeft=4;spacingRight=4;overflow=hidden;rotatable=0;points=[[0,0.5],[1,0.5]];portConstraint=eastwest;" vertex="1" parent="h5xGX1jMDuWpBRr6_GED-41">
          <mxGeometry y="182" width="140" height="26" as="geometry" />
        </mxCell>
        <mxCell id="h5xGX1jMDuWpBRr6_GED-52" value="异常原因" style="text;strokeColor=none;fillColor=none;align=left;verticalAlign=top;spacingLeft=4;spacingRight=4;overflow=hidden;rotatable=0;points=[[0,0.5],[1,0.5]];portConstraint=eastwest;" vertex="1" parent="h5xGX1jMDuWpBRr6_GED-41">
          <mxGeometry y="208" width="140" height="26" as="geometry" />
        </mxCell>
        <mxCell id="h5xGX1jMDuWpBRr6_GED-48" value="修改时间" style="text;strokeColor=none;fillColor=none;align=left;verticalAlign=top;spacingLeft=4;spacingRight=4;overflow=hidden;rotatable=0;points=[[0,0.5],[1,0.5]];portConstraint=eastwest;" vertex="1" parent="h5xGX1jMDuWpBRr6_GED-41">
          <mxGeometry y="234" width="140" height="26" as="geometry" />
        </mxCell>
        <mxCell id="h5xGX1jMDuWpBRr6_GED-55" value="" style="shape=flexArrow;endArrow=classic;html=1;rounded=0;" edge="1" parent="1">
          <mxGeometry width="50" height="50" relative="1" as="geometry">
            <mxPoint x="425" y="344" as="sourcePoint" />
            <mxPoint x="510" y="440" as="targetPoint" />
          </mxGeometry>
        </mxCell>
        <mxCell id="h5xGX1jMDuWpBRr6_GED-56" value="" style="shape=flexArrow;endArrow=classic;html=1;rounded=0;" edge="1" parent="1">
          <mxGeometry width="50" height="50" relative="1" as="geometry">
            <mxPoint x="573" y="341" as="sourcePoint" />
            <mxPoint x="573" y="440" as="targetPoint" />
          </mxGeometry>
        </mxCell>
        <mxCell id="h5xGX1jMDuWpBRr6_GED-57" value="" style="shape=flexArrow;endArrow=classic;html=1;rounded=0;" edge="1" parent="1">
          <mxGeometry width="50" height="50" relative="1" as="geometry">
            <mxPoint x="714" y="341" as="sourcePoint" />
            <mxPoint x="640" y="440" as="targetPoint" />
          </mxGeometry>
        </mxCell>
      </root>
    </mxGraphModel>
  </diagram>
</mxfile>
